<svg width="54" height="46" viewBox="0 0 54 46" fill="none" xmlns="http://www.w3.org/2000/svg">
<path d="M30.75 11.75H23.25C22.2146 11.75 21.375 10.9104 21.375 9.875V6.125C21.375 3.02319 23.8982 0.5 27 0.5C30.1018 0.5 32.625 3.02319 32.625 6.125V9.875C32.625 10.9104 31.7854 11.75 30.75 11.75ZM25.125 8H28.875V6.125C28.875 5.09131 28.0337 4.25 27 4.25C25.9663 4.25 25.125 5.09131 25.125 6.125V8Z" fill="#2AA7FF"/>
<path d="M36.375 8H6.375C3.27319 8 0.75 10.5232 0.75 13.625V36.125C0.75 39.2268 3.27319 41.75 6.375 41.75H10.125V38H6.375C5.34131 38 4.5 37.1587 4.5 36.125V13.625C4.5 12.5913 5.34131 11.75 6.375 11.75H36.375C43.6123 11.75 49.5 17.6377 49.5 24.875V36.125C49.5 37.1587 48.6587 38 47.625 38H43.875V41.75H47.625C50.7268 41.75 53.25 39.2268 53.25 36.125V24.875C53.25 15.5705 45.6795 8 36.375 8Z" fill="#2AA7FF"/>
<path d="M36.375 38H17.625V41.75H36.375V38Z" fill="#2AA7FF"/>
<path d="M13.875 45.5C10.7732 45.5 8.25 42.9768 8.25 39.875C8.25 36.7732 10.7732 34.25 13.875 34.25C16.9768 34.25 19.5 36.7732 19.5 39.875C19.5 42.9768 16.9768 45.5 13.875 45.5ZM13.875 38C12.8413 38 12 38.8413 12 39.875C12 40.9087 12.8413 41.75 13.875 41.75C14.9087 41.75 15.75 40.9087 15.75 39.875C15.75 38.8413 14.9087 38 13.875 38Z" fill="#2AA7FF"/>
<path d="M40.125 45.5C37.0232 45.5 34.5 42.9768 34.5 39.875C34.5 36.7732 37.0232 34.25 40.125 34.25C43.2268 34.25 45.75 36.7732 45.75 39.875C45.75 42.9768 43.2268 45.5 40.125 45.5ZM40.125 38C39.0913 38 38.25 38.8413 38.25 39.875C38.25 40.9087 39.0913 41.75 40.125 41.75C41.1587 41.75 42 40.9087 42 39.875C42 38.8413 41.1587 38 40.125 38Z" fill="#2AA7FF"/>
<path d="M21.375 21.125H17.625V17.375C17.625 16.3396 16.7854 15.5 15.75 15.5C14.7146 15.5 13.875 16.3396 13.875 17.375V21.125H10.125C9.08962 21.125 8.25 21.9646 8.25 23C8.25 24.0354 9.08962 24.875 10.125 24.875H13.875V28.625C13.875 29.6604 14.7146 30.5 15.75 30.5C16.7854 30.5 17.625 29.6604 17.625 28.625V24.875H21.375C22.4104 24.875 23.25 24.0354 23.25 23C23.25 21.9646 22.4104 21.125 21.375 21.125Z" fill="#2AA7FF"/>
<path d="M43.875 30.5H32.625C31.5896 30.5 30.75 29.6604 30.75 28.625V17.375C30.75 16.3396 31.5896 15.5 32.625 15.5H36.375C41.544 15.5 45.75 19.706 45.75 24.875V28.625C45.75 29.6604 44.9104 30.5 43.875 30.5ZM34.5 26.75H42V24.875C42 21.7732 39.4768 19.25 36.375 19.25H34.5V26.75Z" fill="#2AA7FF"/>
</svg>
