<svg width="72" height="72" viewBox="0 0 72 72" fill="none" xmlns="http://www.w3.org/2000/svg">
<path d="M51.5852 34.5569C51.3147 34.2849 50.9997 34.0541 50.61 33.9274C49.3697 33.5246 48.204 32.7994 47.236 31.8326C46.2705 30.8659 45.5465 29.7011 45.1365 28.4439C43.9112 24.7679 41.1392 21.7846 37.6125 20.2454L33.9442 23.9136C34.2107 24.1814 34.5215 24.4081 34.9045 24.5351C37.4825 25.3944 39.5347 27.4476 40.388 30.0111C41.0362 31.9959 42.1825 33.8489 43.701 35.3676C44.9232 36.5899 46.3647 37.5554 47.913 38.2294L51.5852 34.5569Z" fill="#2AA7FF"/>
<path d="M35.693 39.8404C36.6695 38.8639 36.6695 37.2816 35.693 36.3054L28.6227 29.2351L25.0877 32.7701L30.3902 38.0726L16.2485 52.2156L10.9447 46.9131L7.40973 50.4481L14.481 57.5184C14.9692 58.0066 15.609 58.2509 16.2485 58.2509C16.888 58.2509 17.5277 58.0066 18.0162 57.5184L35.693 39.8404Z" fill="#2AA7FF"/>
<path d="M12.712 71.7814C9.51124 71.7814 6.31074 70.5631 3.87399 68.1266C-0.999012 63.2536 -0.999012 55.3214 3.87399 50.4484L42.7645 11.5569C43.702 10.6194 45.3622 10.6194 46.2997 11.5569L60.4427 25.6999C61.4192 26.6764 61.4192 28.2584 60.4427 29.2351L21.5512 68.1266C19.1147 70.5631 15.9137 71.7814 12.712 71.7814ZM7.40924 64.5914C10.3327 67.5161 15.09 67.5136 18.016 64.5914L55.14 27.4674L44.532 16.8594L7.40924 53.9836C4.48574 56.9084 4.48574 61.6664 7.40924 64.5914Z" fill="#2AA7FF"/>
<path d="M62.2102 33.5026C61.5705 33.5026 60.931 33.2584 60.4427 32.7701L39.2292 11.5569C38.7605 11.0881 38.4967 10.4534 38.4967 9.78936C38.4967 9.12536 38.7605 8.49061 39.2292 8.02186L46.3007 0.951613C47.2772 -0.0248867 48.8592 -0.0248867 49.836 0.951613L71.0482 22.1651C72.0247 23.1416 72.0247 24.7236 71.0482 25.7004L63.978 32.7706C63.4897 33.2589 62.8497 33.5026 62.2102 33.5026ZM44.532 9.78911L62.2102 27.4674L65.7455 23.9321L48.0685 6.25386L44.532 9.78911Z" fill="#2AA7FF"/>
</svg>
