<svg width="70" height="56" viewBox="0 0 70 56" fill="none" xmlns="http://www.w3.org/2000/svg">
<path d="M38.4473 55.9688C37.7686 55.9688 37.1216 55.6928 36.6503 55.207L11.7773 29.4868C5.22955 22.7118 5.32231 11.7818 11.9823 5.11903C18.0591 -0.957724 27.8221 -1.65097 34.6923 3.50528L38.4473 6.32028L42.1973 3.50528C49.0773 -1.64847 58.8378 -0.955223 64.9098 5.11903C71.5723 11.7815 71.6651 22.7118 65.1148 29.4868L40.2443 55.207C39.7731 55.6928 39.1261 55.9688 38.4473 55.9688ZM24.2848 5.04828C21.0866 5.04828 17.9031 6.26903 15.5178 8.65428C10.7741 13.4003 10.7083 21.186 15.3713 26.0103L38.4476 49.8725L61.5213 26.0103C66.1868 21.186 66.1208 13.4005 61.3748 8.65428C57.0486 4.32578 50.0931 3.83728 45.1981 7.50428L39.9491 11.4448C39.0603 12.1138 37.8373 12.1138 36.9486 11.4448L31.6946 7.50428C29.4973 5.85628 26.8851 5.04828 24.2848 5.04828Z" fill="#2AA7FF"/>
<path d="M37.5 40.5001C37.4415 40.5001 37.3827 40.4976 37.3217 40.4928C36.3135 40.4221 35.4492 39.7506 35.1292 38.7911L29.7875 22.7656L27.3217 28.9276C26.941 29.8773 26.023 30.4998 25 30.4998H2.5C1.11825 30.4998 0 29.3816 0 27.9998C0 26.6181 1.11825 25.4998 2.5 25.4998H23.308L27.678 14.5721C28.0685 13.5981 29.0525 12.9926 30.073 12.9998C31.1227 13.0316 32.0407 13.7151 32.3702 14.7088L37.9635 31.4838L40.2632 26.8818C40.688 26.0346 41.5522 25.5001 42.4995 25.5001H49.9995C51.3812 25.5001 52.4995 26.6183 52.4995 28.0001C52.4995 29.3818 51.3812 30.5001 49.9995 30.5001H44.045L39.736 39.1183C39.3112 39.9703 38.4422 40.5001 37.5 40.5001Z" fill="#2AA7FF"/>
</svg>
