<svg width="70" height="70" viewBox="0 0 70 70" fill="none" xmlns="http://www.w3.org/2000/svg">
<path d="M40 45H50V67.5H55V42.5C55 41.1183 53.8818 40 52.5 40H37.5C36.1183 40 35 41.1183 35 42.5V67.5H40V45Z" fill="#2AA7FF"/>
<path d="M62.5 20H50V25H60V65H10V25H20V20H7.5C6.11825 20 5 21.1183 5 22.5V67.5C5 68.8817 6.11825 70 7.5 70H62.5C63.8817 70 65 68.8817 65 67.5V22.5C65 21.1183 63.8817 20 62.5 20Z" fill="#2AA7FF"/>
<path d="M20 20H5V15H20V10H2.5C1.11825 10 0 11.1183 0 12.5V22.5C0 23.8818 1.11825 25 2.5 25H20V20Z" fill="#2AA7FF"/>
<path d="M67.5 10H50V15H65V20H50V25H67.5C68.8818 25 70 23.8818 70 22.5V12.5C70 11.1183 68.8818 10 67.5 10Z" fill="#2AA7FF"/>
<path d="M50 35H20C18.6183 35 17.5 33.8817 17.5 32.5V2.5C17.5 1.11825 18.6183 0 20 0H50C51.3817 0 52.5 1.11825 52.5 2.5V32.5C52.5 33.8817 51.3817 35 50 35ZM22.5 30H47.5V5H22.5V30Z" fill="#2AA7FF"/>
<path d="M40 15H37.5V12.5C37.5 11.1183 36.3818 10 35 10C33.6182 10 32.5 11.1183 32.5 12.5V15H30C28.6183 15 27.5 16.1182 27.5 17.5C27.5 18.8818 28.6183 20 30 20H32.5V22.5C32.5 23.8818 33.6182 25 35 25C36.3818 25 37.5 23.8818 37.5 22.5V20H40C41.3818 20 42.5 18.8818 42.5 17.5C42.5 16.1182 41.3818 15 40 15Z" fill="#2AA7FF"/>
<path d="M27.5 55H17.5C16.1183 55 15 53.8818 15 52.5V47.5C15 43.3643 18.3643 40 22.5 40C26.6357 40 30 43.3643 30 47.5V52.5C30 53.8818 28.8818 55 27.5 55ZM20 50H25V47.5C25 46.1205 23.8795 45 22.5 45C21.1205 45 20 46.1205 20 47.5V50Z" fill="#2AA7FF"/>
</svg>
