<svg width="41" height="41" viewBox="0 0 41 41" fill="none" xmlns="http://www.w3.org/2000/svg">
<mask id="mask0_32_1245" style="mask-type:luminance" maskUnits="userSpaceOnUse" x="0" y="0" width="41" height="41">
<path d="M40.6201 0.66H0.620056V40.66H40.6201V0.66Z" fill="white"/>
</mask>
<g mask="url(#mask0_32_1245)">
<path d="M20.6201 16.1899C20.6201 15.1878 21.4325 14.3754 22.4346 14.3754C23.4367 14.3754 24.2491 15.1878 24.2491 16.1899V14.9922C24.2491 13.9901 25.0615 13.1777 26.0636 13.1777C27.0658 13.1777 27.8782 13.9901 27.8782 14.9922V13.5475C27.8782 12.5301 28.7108 11.678 29.728 11.6974C30.7138 11.7163 31.5072 12.5213 31.5072 13.5116V14.9922C31.5072 13.9901 32.3196 13.1777 33.3217 13.1777C34.3238 13.1777 35.1362 13.9901 35.1362 14.9922V32.5303C35.1362 33.9278 34.6253 35.2057 33.7802 36.1881C33.229 36.8288 32.9299 37.6483 32.9299 38.4935V40.0492C32.9299 40.3867 32.6869 40.6604 32.3873 40.6604H22.5323C22.2327 40.6604 21.9897 40.3868 21.9897 40.0492V37.3505C21.9897 36.6919 21.8079 36.0456 21.4605 35.4861C20.9278 34.6276 20.6201 33.6149 20.6201 32.5304V16.1899Z" fill="url(#paint0_linear_32_1245)"/>
<path d="M26.8162 27.7191C31.2777 27.7191 34.8946 29.8962 34.8946 32.5818C34.8946 35.2675 31.2777 37.4446 26.8162 37.4446C24.9509 37.4446 23.2335 37.0639 21.8661 36.4247C21.7774 36.0953 21.6422 35.7786 21.4606 35.486C20.9278 34.6276 20.6201 33.6149 20.6201 32.5303V29.4619C22.102 28.3967 24.3275 27.7191 26.8162 27.7191Z" fill="url(#paint1_linear_32_1245)"/>
<path d="M31.9026 29.0024C32.7822 29.0024 33.5793 29.354 34.1622 29.9238L36.356 27.7301C37.4169 26.6692 39.137 26.6692 40.1979 27.7301C40.7607 28.2929 40.7607 29.2052 40.1979 29.7679L33.7948 36.1711C32.7654 37.3777 31.2339 38.1431 29.5235 38.1431H28.3063C26.7753 38.1431 25.5342 36.9019 25.5342 35.3709C25.5342 31.8536 28.3855 29.0024 31.9026 29.0024Z" fill="url(#paint2_linear_32_1245)"/>
<path d="M31.5078 14.9922V24.698H32C33.7321 24.698 35.1364 26.1024 35.1364 27.8344V14.9922C35.1364 13.9903 34.3242 13.1776 33.3224 13.1776C32.32 13.1776 31.5078 13.9903 31.5078 14.9922Z" fill="url(#paint3_linear_32_1245)"/>
<path d="M27.8784 13.5117V24.698H31.5076V13.5117C31.5076 12.5093 30.6949 11.6971 29.693 11.6971C28.6906 11.6971 27.8784 12.5093 27.8784 13.5117Z" fill="url(#paint4_linear_32_1245)"/>
<path d="M24.249 14.9922V24.698H27.8782V14.9922C27.8782 13.9903 27.066 13.1776 26.0636 13.1776C25.0617 13.1776 24.249 13.9903 24.249 14.9922Z" fill="url(#paint5_linear_32_1245)"/>
<path d="M20.6205 16.1899V27.8343C20.6205 26.1022 22.0248 24.6979 23.7569 24.6979H24.2491V16.1899C24.2491 15.1876 23.4369 14.3753 22.4345 14.3753C21.4326 14.3753 20.6205 15.1876 20.6205 16.1899Z" fill="url(#paint6_linear_32_1245)"/>
<path d="M38.0189 31.969L33.793 36.1794C32.7613 37.3841 31.2284 38.1466 29.5181 38.1434L28.3009 38.1412L26.227 38.1373C23.1273 38.1316 20.6192 35.6142 20.6249 32.5145L20.626 31.9369L38.0189 31.969Z" fill="url(#paint7_linear_32_1245)"/>
<path d="M40.1981 29.7675L33.795 36.1707C33.7919 36.1746 33.7887 36.1777 33.7856 36.1816C33.784 36.1832 33.7817 36.1856 33.7801 36.1879C33.2287 36.8287 32.9299 37.6483 32.9299 38.493V40.0491C32.9299 40.3863 32.6868 40.6601 32.3872 40.6601H30.5707L20.6201 30.7103V16.1895C20.6201 15.1879 21.4326 14.3754 22.4342 14.3754C23.4366 14.3754 24.2491 15.1879 24.2491 16.1895V14.9918C24.2491 13.9903 25.0617 13.1777 26.0632 13.1777C27.0656 13.1777 27.8781 13.9903 27.8781 14.9918V13.5471C27.8781 12.5299 28.7111 11.6781 29.7283 11.6969C30.7134 11.7158 31.5072 12.5212 31.5072 13.5118V14.9918C31.5072 14.4907 31.7103 14.0373 32.0389 13.7095C32.3668 13.3808 32.8209 13.1777 33.3213 13.1777C34.3236 13.1777 35.1362 13.9903 35.1362 14.9918V28.9495L36.3558 27.7299C37.417 26.6687 39.137 26.6687 40.1981 27.7299C40.7605 28.2922 40.7605 29.2052 40.1981 29.7675Z" fill="url(#paint8_linear_32_1245)"/>
<path d="M20.6201 16.1899C20.6201 15.1878 19.8077 14.3754 18.8056 14.3754C17.8034 14.3754 16.991 15.1878 16.991 16.1899V14.9922C16.991 13.9901 16.1787 13.1777 15.1765 13.1777C14.1744 13.1777 13.362 13.9901 13.362 14.9922V13.5475C13.362 12.5301 12.5294 11.678 11.5121 11.6974C10.5263 11.7163 9.73296 12.5213 9.73296 13.5116V14.9922C9.73296 13.9901 8.92056 13.1777 7.91845 13.1777C6.91633 13.1777 6.10394 13.9901 6.10394 14.9922V32.5303C6.10394 33.9278 6.61484 35.2057 7.45994 36.1881C8.01115 36.8288 8.31021 37.6483 8.31021 38.4935V40.0492C8.31021 40.3867 8.55319 40.6604 8.8528 40.6604H18.7079C19.0075 40.6604 19.2505 40.3868 19.2505 40.0492V37.3505C19.2505 36.6919 19.4323 36.0456 19.7797 35.4861C20.3124 34.6276 20.6201 33.6149 20.6201 32.5304V16.1899Z" fill="url(#paint9_linear_32_1245)"/>
<path d="M14.4241 27.7191C9.9625 27.7191 6.34564 29.8962 6.34564 32.5818C6.34564 35.2675 9.9625 37.4446 14.4241 37.4446C16.2894 37.4446 18.0068 37.0639 19.3742 36.4247C19.4629 36.0953 19.5981 35.7786 19.7797 35.486C20.3125 34.6276 20.6202 33.6149 20.6202 32.5303V29.4619C19.1383 28.3967 16.9128 27.7191 14.4241 27.7191Z" fill="url(#paint10_linear_32_1245)"/>
<path d="M9.33741 29.0024C8.45781 29.0024 7.66079 29.354 7.07781 29.9238L4.88408 27.7301C3.82314 26.6692 2.10306 26.6692 1.04211 27.7301C0.47937 28.2929 0.47937 29.2052 1.04211 29.7679L7.44526 36.1711C8.47467 37.3777 10.0061 38.1431 11.7166 38.1431H12.9338C14.4648 38.1431 15.7059 36.9019 15.7059 35.3709C15.7058 31.8536 12.8546 29.0024 9.33741 29.0024Z" fill="url(#paint11_linear_32_1245)"/>
<path d="M9.73256 14.9922V24.698H9.24033C7.50825 24.698 6.10394 26.1024 6.10394 27.8344V14.9922C6.10394 13.9903 6.91617 13.1776 7.91798 13.1776C8.92041 13.1776 9.73256 13.9903 9.73256 14.9922Z" fill="url(#paint12_linear_32_1245)"/>
<path d="M13.3616 13.5117V24.698H9.73236V13.5117C9.73236 12.5093 10.5451 11.6971 11.547 11.6971C12.5494 11.6971 13.3616 12.5093 13.3616 13.5117Z" fill="url(#paint13_linear_32_1245)"/>
<path d="M16.991 14.9922V24.698H13.3618V14.9922C13.3618 13.9903 14.174 13.1776 15.1764 13.1776C16.1783 13.1776 16.991 13.9903 16.991 14.9922Z" fill="url(#paint14_linear_32_1245)"/>
<path d="M20.6198 16.1899V27.8343C20.6198 26.1022 19.2155 24.6979 17.4834 24.6979H16.9911V16.1899C16.9911 15.1876 17.8033 14.3753 18.8057 14.3753C19.8076 14.3753 20.6198 15.1876 20.6198 16.1899Z" fill="url(#paint15_linear_32_1245)"/>
<path d="M3.22113 31.969L7.4471 36.1794C8.47878 37.3841 10.0116 38.1466 11.722 38.1434L12.9392 38.1412L15.0131 38.1373C18.1128 38.1316 20.6209 35.6142 20.6152 32.5145L20.6141 31.9369L3.22113 31.969Z" fill="url(#paint16_linear_32_1245)"/>
<path d="M20.62 16.1895V30.7102L12.5462 22.6365C10.307 20.475 8.9603 18.1848 8.53756 15.8138C8.38619 14.9644 8.38305 14.1079 8.51874 13.2797C9.22619 13.5275 9.73285 14.2005 9.73285 14.9918V13.5118C9.73285 12.5212 10.5266 11.7158 11.5117 11.6969C12.529 11.6781 13.3619 12.5299 13.3619 13.5471V14.9918C13.3619 13.9903 14.1745 13.1777 15.1768 13.1777C16.1784 13.1777 16.9909 13.9903 16.9909 14.9918V16.1895C16.9909 15.1879 17.8035 14.3754 18.8058 14.3754C19.8074 14.3754 20.62 15.1879 20.62 16.1895Z" fill="url(#paint17_linear_32_1245)"/>
<path d="M20.6201 27.54C20.178 27.54 19.7352 27.4353 19.3396 27.2374C18.144 26.639 15.8093 25.356 13.6068 23.4856C10.7417 21.0525 9.04349 18.4408 8.55925 15.7232C8.18317 13.612 8.72011 11.4569 10.0324 9.8103C11.2478 8.28536 12.9701 7.3943 14.882 7.30105C14.9943 7.29556 15.1083 7.29281 15.2204 7.29281C17.0116 7.29281 18.7026 7.98309 19.9818 9.23658C20.2129 9.46301 20.4259 9.70324 20.6199 9.9554C20.814 9.70324 21.0271 9.46293 21.2581 9.2365C22.5373 7.98309 24.2283 7.29281 26.0196 7.29281C26.1318 7.29281 26.2456 7.29556 26.358 7.30105C28.2699 7.39422 29.9922 8.28536 31.2076 9.81038C32.5199 11.457 33.0569 13.6121 32.6806 15.7232C32.1965 18.4407 30.4983 21.0524 27.6332 23.4856C25.4308 25.3559 23.0961 26.6389 21.9004 27.2374C21.5049 27.4354 21.0621 27.54 20.6201 27.54Z" fill="url(#paint18_linear_32_1245)"/>
<path d="M20.6198 5.78816C19.9255 5.78816 19.3627 5.22533 19.3627 4.53106V1.91702C19.3627 1.22282 19.9255 0.66 20.6198 0.66C21.314 0.66 21.8769 1.22282 21.8769 1.9171V4.53114C21.8769 5.22533 21.314 5.78816 20.6198 5.78816Z" fill="url(#paint19_linear_32_1245)"/>
<path d="M17.3805 6.64461C16.8896 7.13551 16.0937 7.13551 15.6027 6.64461L13.7543 4.79621C13.2634 4.30531 13.2634 3.50939 13.7543 3.01841C14.2452 2.52751 15.0411 2.52751 15.532 3.01841L17.3804 4.8668C17.8715 5.35771 17.8715 6.15371 17.3805 6.64461Z" fill="url(#paint20_linear_32_1245)"/>
<path d="M23.8594 6.64461C23.3685 6.15371 23.3685 5.35778 23.8594 4.8668L25.7078 3.01841C26.1987 2.52751 26.9946 2.52751 27.4856 3.01841C27.9765 3.50931 27.9765 4.30523 27.4856 4.79614L25.6372 6.64453C25.1462 7.13551 24.3503 7.13551 23.8594 6.64461Z" fill="url(#paint21_linear_32_1245)"/>
</g>
<defs>
<linearGradient id="paint0_linear_32_1245" x1="26.1186" y1="23.484" x2="32.1764" y2="33.0792" gradientUnits="userSpaceOnUse">
<stop stop-color="#FFDFCF"/>
<stop offset="1" stop-color="#FFA78F"/>
</linearGradient>
<linearGradient id="paint1_linear_32_1245" x1="26.5734" y1="27.8525" x2="27.5408" y2="31.8263" gradientUnits="userSpaceOnUse">
<stop stop-color="#FFDFCF"/>
<stop offset="1" stop-color="#FFA78F"/>
</linearGradient>
<linearGradient id="paint2_linear_32_1245" x1="30.1182" y1="25.5498" x2="35.3934" y2="37.4086" gradientUnits="userSpaceOnUse">
<stop stop-color="#FFDFCF"/>
<stop offset="1" stop-color="#FFA78F"/>
</linearGradient>
<linearGradient id="paint3_linear_32_1245" x1="30.9532" y1="20.506" x2="36.3535" y2="20.506" gradientUnits="userSpaceOnUse">
<stop stop-color="#FFDFCF"/>
<stop offset="1" stop-color="#FFA78F"/>
</linearGradient>
<linearGradient id="paint4_linear_32_1245" x1="27.15" y1="18.1976" x2="32.5225" y2="18.1976" gradientUnits="userSpaceOnUse">
<stop stop-color="#FFDFCF"/>
<stop offset="1" stop-color="#FFA78F"/>
</linearGradient>
<linearGradient id="paint5_linear_32_1245" x1="23.6739" y1="18.9378" x2="29.2041" y2="18.9378" gradientUnits="userSpaceOnUse">
<stop stop-color="#FFDFCF"/>
<stop offset="1" stop-color="#FFA78F"/>
</linearGradient>
<linearGradient id="paint6_linear_32_1245" x1="20.2799" y1="21.1048" x2="25.9326" y2="21.1048" gradientUnits="userSpaceOnUse">
<stop stop-color="#FFDFCF"/>
<stop offset="1" stop-color="#FFA78F"/>
</linearGradient>
<linearGradient id="paint7_linear_32_1245" x1="28.4599" y1="34.8282" x2="26.5906" y2="41.0594" gradientUnits="userSpaceOnUse">
<stop stop-color="#F89580" stop-opacity="0"/>
<stop offset="0.9972" stop-color="#C5715A"/>
</linearGradient>
<linearGradient id="paint8_linear_32_1245" x1="31.814" y1="26.5166" x2="25.6963" y2="21.2617" gradientUnits="userSpaceOnUse">
<stop stop-color="#F89580" stop-opacity="0"/>
<stop offset="0.9972" stop-color="#C5715A"/>
</linearGradient>
<linearGradient id="paint9_linear_32_1245" x1="8.96786" y1="21.6513" x2="22.3012" y2="36.8147" gradientUnits="userSpaceOnUse">
<stop stop-color="#FFDFCF"/>
<stop offset="1" stop-color="#FFA78F"/>
</linearGradient>
<linearGradient id="paint10_linear_32_1245" x1="11.3255" y1="28.0831" x2="15.4431" y2="34.5537" gradientUnits="userSpaceOnUse">
<stop stop-color="#FFDFCF"/>
<stop offset="1" stop-color="#FFA78F"/>
</linearGradient>
<linearGradient id="paint11_linear_32_1245" x1="5.93035" y1="26.7046" x2="10.7539" y2="37.0968" gradientUnits="userSpaceOnUse">
<stop stop-color="#FFDFCF"/>
<stop offset="1" stop-color="#FFA78F"/>
</linearGradient>
<linearGradient id="paint12_linear_32_1245" x1="10.2872" y1="20.506" x2="4.88684" y2="20.506" gradientUnits="userSpaceOnUse">
<stop stop-color="#FFA78F"/>
<stop offset="1" stop-color="#FFDFCF"/>
</linearGradient>
<linearGradient id="paint13_linear_32_1245" x1="14.0901" y1="18.1976" x2="8.71746" y2="18.1976" gradientUnits="userSpaceOnUse">
<stop stop-color="#FFA78F"/>
<stop offset="1" stop-color="#FFDFCF"/>
</linearGradient>
<linearGradient id="paint14_linear_32_1245" x1="17.5661" y1="18.9378" x2="12.0359" y2="18.9378" gradientUnits="userSpaceOnUse">
<stop stop-color="#FFA78F"/>
<stop offset="1" stop-color="#FFDFCF"/>
</linearGradient>
<linearGradient id="paint15_linear_32_1245" x1="20.9604" y1="21.1048" x2="15.3076" y2="21.1048" gradientUnits="userSpaceOnUse">
<stop stop-color="#FFA78F"/>
<stop offset="1" stop-color="#FFDFCF"/>
</linearGradient>
<linearGradient id="paint16_linear_32_1245" x1="12.7802" y1="34.8282" x2="14.6496" y2="41.0594" gradientUnits="userSpaceOnUse">
<stop stop-color="#F89580" stop-opacity="0"/>
<stop offset="0.9972" stop-color="#C5715A"/>
</linearGradient>
<linearGradient id="paint17_linear_32_1245" x1="25.0913" y1="32.1228" x2="17.9801" y2="21.5607" gradientUnits="userSpaceOnUse">
<stop stop-color="#F89580" stop-opacity="0"/>
<stop offset="0.9972" stop-color="#C5715A"/>
</linearGradient>
<linearGradient id="paint18_linear_32_1245" x1="16.763" y1="11.0241" x2="27.5907" y2="21.8519" gradientUnits="userSpaceOnUse">
<stop stop-color="#FD3581"/>
<stop offset="1" stop-color="#972437"/>
</linearGradient>
<linearGradient id="paint19_linear_32_1245" x1="19.5002" y1="3.22651" x2="22.9916" y2="3.22651" gradientUnits="userSpaceOnUse">
<stop stop-color="#97DA7B"/>
<stop offset="0.1327" stop-color="#91D67A"/>
<stop offset="0.3049" stop-color="#81CC75"/>
<stop offset="0.4987" stop-color="#66BB6C"/>
<stop offset="0.7084" stop-color="#41A461"/>
<stop offset="0.9286" stop-color="#128653"/>
<stop offset="1" stop-color="#017B4E"/>
</linearGradient>
<linearGradient id="paint20_linear_32_1245" x1="14.6422" y1="5.67239" x2="17.1106" y2="3.20398" gradientUnits="userSpaceOnUse">
<stop stop-color="#97DA7B"/>
<stop offset="0.1327" stop-color="#91D67A"/>
<stop offset="0.3049" stop-color="#81CC75"/>
<stop offset="0.4987" stop-color="#66BB6C"/>
<stop offset="0.7084" stop-color="#41A461"/>
<stop offset="0.9286" stop-color="#128653"/>
<stop offset="1" stop-color="#017B4E"/>
</linearGradient>
<linearGradient id="paint21_linear_32_1245" x1="24.8424" y1="3.95268" x2="27.3109" y2="6.42114" gradientUnits="userSpaceOnUse">
<stop stop-color="#97DA7B"/>
<stop offset="0.1327" stop-color="#91D67A"/>
<stop offset="0.3049" stop-color="#81CC75"/>
<stop offset="0.4987" stop-color="#66BB6C"/>
<stop offset="0.7084" stop-color="#41A461"/>
<stop offset="0.9286" stop-color="#128653"/>
<stop offset="1" stop-color="#017B4E"/>
</linearGradient>
</defs>
</svg>
