<svg width="28" height="24" viewBox="0 0 14 12" fill="none" xmlns="http://www.w3.org/2000/svg">
<path d="M0.967367 4.62987H2.71737V11.6299H0.967367C0.645203 11.6299 0.384033 11.3687 0.384033 11.0465V5.2132C0.384033 4.89103 0.645203 4.62987 0.967367 4.62987ZM4.05489 3.87568L7.78852 0.142072C7.89112 0.0394341 8.05364 0.0278899 8.16972 0.114976L8.66707 0.487982C8.94982 0.700036 9.07722 1.06136 8.99001 1.40385L8.31725 4.04653H12.0507C12.695 4.04653 13.2174 4.56887 13.2174 5.2132V6.44072C13.2174 6.59315 13.1875 6.74406 13.1295 6.88493L11.3244 11.2686C11.2344 11.4872 11.0214 11.6299 10.785 11.6299H4.46737C4.1452 11.6299 3.88403 11.3687 3.88403 11.0465V4.28816C3.88403 4.13345 3.94549 3.98508 4.05489 3.87568Z" fill="white"/>
</svg>
