<svg width="31" height="31" viewBox="0 0 31 31" fill="none" xmlns="http://www.w3.org/2000/svg">
<path d="M25.5775 0H5.1155C2.29029 0 0 2.27302 0 5.07692V25.3846C0 28.1885 2.29029 30.4615 5.1155 30.4615H25.5775C28.4027 30.4615 30.693 28.1885 30.693 25.3846V5.07692C30.693 2.27302 28.4027 0 25.5775 0Z" fill="#2AA8FF"/>
<path fill-rule="evenodd" clip-rule="evenodd" d="M7.82369 10.3613C10.5488 10.3246 13.0317 9.29273 14.9202 7.61523C16.8086 9.29273 19.2915 10.3246 22.0166 10.3613C22.1156 10.9464 22.1671 11.5474 22.1671 12.1603C22.1671 16.8578 19.1422 20.8539 14.9202 22.3349C10.6981 20.8539 7.67322 16.8578 7.67322 12.1603C7.67322 11.5474 7.72473 10.9464 7.82369 10.3613ZM18.2406 13.6577C18.5736 13.3273 18.5736 12.7915 18.2406 12.4611C17.9077 12.1307 17.3679 12.1307 17.0349 12.4611L14.0143 15.4589L12.8054 14.2592C12.4725 13.9287 11.9326 13.9287 11.5997 14.2592C11.2668 14.5896 11.2668 15.1254 11.5997 15.4558L13.4114 17.2539C13.7444 17.5843 14.2842 17.5843 14.6172 17.2539L18.2406 13.6577Z" fill="white"/>
</svg>
