<svg width="72" height="70" viewBox="0 0 72 70" fill="none" xmlns="http://www.w3.org/2000/svg">
<path d="M10.6875 67.5C10.6875 68.8818 11.8197 70 13.2188 70C14.6178 70 15.75 68.8818 15.75 67.5V62.5H10.6875V67.5Z" fill="#2AA7FF"/>
<path d="M56.25 67.5C56.25 68.8818 57.3822 70 58.7812 70C60.1803 70 61.3125 68.8818 61.3125 67.5V62.5H56.25V67.5Z" fill="#2AA7FF"/>
<path d="M68.9062 40H3.09375V45H68.9062V40Z" fill="#2AA7FF"/>
<path d="M63.8438 65H8.15625C3.9688 65 0.5625 61.6357 0.5625 57.5V7.5C0.5625 3.36425 3.9688 0 8.15625 0H63.8438C68.0312 0 71.4375 3.36425 71.4375 7.5V57.5C71.4375 61.6357 68.0312 65 63.8438 65ZM8.15625 5C6.75951 5 5.625 6.1205 5.625 7.5V57.5C5.625 58.8795 6.75951 60 8.15625 60H63.8438C65.2405 60 66.375 58.8795 66.375 57.5V7.5C66.375 6.1205 65.2405 5 63.8438 5H8.15625Z" fill="#2AA7FF"/>
<path d="M58.7812 55H48.6562C47.2572 55 46.125 53.8817 46.125 52.5C46.125 51.1183 47.2572 50 48.6562 50H58.7812C60.1803 50 61.3125 51.1183 61.3125 52.5C61.3125 53.8817 60.1803 55 58.7812 55Z" fill="#2AA7FF"/>
<path d="M13.2188 55C14.6167 55 15.75 53.8807 15.75 52.5C15.75 51.1193 14.6167 50 13.2188 50C11.8208 50 10.6875 51.1193 10.6875 52.5C10.6875 53.8807 11.8208 55 13.2188 55Z" fill="#2AA7FF"/>
<path d="M23.3438 55C24.7417 55 25.875 53.8807 25.875 52.5C25.875 51.1193 24.7417 50 23.3438 50C21.9458 50 20.8125 51.1193 20.8125 52.5C20.8125 53.8807 21.9458 55 23.3438 55Z" fill="#2AA7FF"/>
<path d="M48.6562 34.9999C48.5649 34.9999 48.4732 34.9949 48.3793 34.9851C47.3263 34.8704 46.4586 34.1209 46.2014 33.1051L43.0374 20.6076L40.8818 25.9274C40.5654 26.7086 39.8733 27.2799 39.0403 27.4484C38.1974 27.6169 37.3421 27.3604 36.7414 26.7671L34.3932 24.4479L30.757 33.4274C30.3467 34.4356 29.3208 35.0436 28.2356 34.9949C27.1406 34.9216 26.216 34.1574 25.9517 33.1051L22.5479 19.6626L20.5457 23.6176C20.1156 24.4649 19.2406 24.9994 18.2815 24.9994H13.219C11.82 24.9994 10.6877 23.8811 10.6877 22.4994C10.6877 21.1176 11.82 19.9994 13.219 19.9994H16.7167L21.0795 11.3811C21.5541 10.4461 22.5454 9.89914 23.6207 10.0139C24.6737 10.1286 25.5414 10.8781 25.7985 11.8939L28.9626 24.3914L31.1182 19.0716C31.4346 18.2904 32.1267 17.7191 32.9597 17.5506C33.8051 17.3796 34.6579 17.6386 35.2586 18.2319L37.6068 20.5511L41.243 11.5716C41.6533 10.5634 42.6817 9.96264 43.7643 10.0041C44.8594 10.0774 45.784 10.8416 46.0483 11.8939L49.4521 25.3364L51.4543 21.3814C51.8843 20.5341 52.7594 19.9996 53.7185 19.9996H58.781C60.18 19.9996 61.3122 21.1179 61.3122 22.4996C61.3122 23.8814 60.18 24.9996 58.781 24.9996H55.2833L50.9204 33.6179C50.4879 34.4699 49.6077 34.9999 48.6562 34.9999Z" fill="#2AA7FF"/>
</svg>
