<svg width="35" height="34" viewBox="0 0 35 34" fill="none" xmlns="http://www.w3.org/2000/svg">
<path d="M30.5 0H4.5C2.29086 0 0.5 1.79086 0.5 4V30C0.5 32.2091 2.29086 34 4.5 34H30.5C32.7091 34 34.5 32.2091 34.5 30V4C34.5 1.79086 32.7091 0 30.5 0Z" fill="#2AA7FF"/>
<path d="M19.5154 11.5749C19.1187 11.5016 18.7543 11.7548 18.6788 12.142C18.6033 12.5292 18.8573 12.9073 19.2432 12.9831C20.4051 13.2096 21.3022 14.109 21.5296 15.2748C21.5943 15.6104 21.8898 15.8553 22.23 15.8553C22.2757 15.8553 22.3213 15.8511 22.3678 15.8428C22.7537 15.7653 23.0077 15.3881 22.9322 15C22.5927 13.2587 21.2524 11.9138 19.5154 11.5749Z" fill="white"/>
<path d="M19.4635 8.67311C19.2776 8.64647 19.0909 8.70143 18.9423 8.81968C18.7896 8.9396 18.6942 9.11281 18.6735 9.30685C18.6295 9.69908 18.9125 10.0539 19.3042 10.098C22.0056 10.3994 24.1053 12.5038 24.409 15.2136C24.4497 15.5767 24.7543 15.8507 25.1178 15.8507C25.1452 15.8507 25.1717 15.849 25.1991 15.8457C25.3891 15.8249 25.5585 15.7308 25.678 15.5809C25.7966 15.431 25.8506 15.2445 25.829 15.0538C25.4506 11.6727 22.8338 9.04869 19.4635 8.67311Z" fill="white"/>
<path fill-rule="evenodd" clip-rule="evenodd" d="M16.693 17.8103C20.0172 21.1336 20.7713 17.2889 22.8879 19.404C24.9284 21.444 26.1012 21.8527 23.5159 24.4373C23.192 24.6975 21.1345 27.8285 13.9037 20.5997C6.67194 13.37 9.80116 11.3104 10.0615 10.9866C12.6531 8.39488 13.0547 9.5745 15.0952 11.6144C17.2118 13.7304 13.3687 14.487 16.693 17.8103Z" fill="white"/>
</svg>
