<svg width="36" height="36" viewBox="0 0 36 36" fill="none" xmlns="http://www.w3.org/2000/svg">
<rect x="1.08997" y="0.5" width="34.2" height="34.2" rx="17.1" fill="white" fill-opacity="0.99"/>
<rect x="1.08997" y="0.5" width="34.2" height="34.2" rx="17.1" stroke="white"/>
<path d="M25.18 17.59C25.18 13.3087 21.7112 9.83997 17.43 9.83997C13.1487 9.83997 9.67999 13.3087 9.67999 17.59C9.67999 20.9025 11.7112 23.6837 14.5862 24.8087C14.5237 24.215 14.4612 23.2775 14.6175 22.59C14.7737 21.9962 15.5237 18.7462 15.5237 18.7462C15.5237 18.7462 15.305 18.2775 15.305 17.59C15.305 16.5275 15.93 15.715 16.7112 15.715C17.3675 15.715 17.68 16.215 17.68 16.8087C17.68 17.465 17.2425 18.465 17.0237 19.4025C16.8675 20.1525 17.43 20.7775 18.18 20.7775C19.555 20.7775 20.6175 19.34 20.6175 17.2462C20.6175 15.3712 19.2737 14.09 17.3987 14.09C15.18 14.09 13.8987 15.7462 13.8987 17.4337C13.8987 18.1212 14.1487 18.84 14.4612 19.215C14.5237 19.2775 14.5237 19.3712 14.5237 19.4337C14.4612 19.6837 14.305 20.215 14.305 20.3087C14.2737 20.465 14.18 20.4962 14.0237 20.4337C13.055 19.965 12.4612 18.5587 12.4612 17.4025C12.4612 14.965 14.2425 12.715 17.5862 12.715C20.2737 12.715 22.3675 14.6525 22.3675 17.215C22.3675 19.8712 20.68 22.0275 18.3362 22.0275C17.555 22.0275 16.805 21.6212 16.555 21.1212C16.555 21.1212 16.18 22.6212 16.0862 22.965C15.8987 23.6525 15.43 24.4962 15.1175 24.9962C15.8362 25.2462 16.6175 25.34 17.43 25.34C21.7112 25.34 25.18 21.8712 25.18 17.59Z" fill="#2AA7FF"/>
</svg>
