<svg width="56" height="70" viewBox="0 0 56 70" fill="none" xmlns="http://www.w3.org/2000/svg">
<path d="M28.0012 70C27.7582 70 27.5155 69.9658 27.281 69.895C11.263 65.0878 0.5 50.625 0.5 33.9038V10C0.5 8.62053 1.6195 7.50253 2.9975 7.50003C3.14025 7.50003 17.3065 7.39503 26.4998 0.500529C27.3885 -0.168471 28.6115 -0.168471 29.5002 0.500529C38.7262 7.41953 52.8585 7.50003 53 7.50003C54.3805 7.50003 55.5 8.61828 55.5 10V33.9038C55.5 50.6225 44.7395 65.0878 28.7228 69.895C28.4883 69.9658 28.2455 70 28.0012 70ZM5.5 12.395V33.9038C5.5 48.147 14.51 60.5028 27.9988 64.8828C41.49 60.5028 50.5 48.1493 50.5 33.9038V12.395C45.9125 12.0728 35.9408 10.7763 28 5.55428C20.0592 10.7765 10.0875 12.0728 5.5 12.395Z" fill="#2AA7FF"/>
<path d="M28 50C18.3503 50 10.5 42.1485 10.5 32.5C10.5 22.8515 18.3503 15 28 15C37.6497 15 45.5 22.8515 45.5 32.5C45.5 42.1485 37.6497 50 28 50ZM28 20C21.108 20 15.5 25.608 15.5 32.5C15.5 39.392 21.108 45 28 45C34.892 45 40.5 39.392 40.5 32.5C40.5 25.608 34.892 20 28 20Z" fill="#2AA7FF"/>
<path d="M33 30H30.5V27.5C30.5 26.1183 29.3805 25 28 25C26.6195 25 25.5 26.1183 25.5 27.5V30H23C21.6195 30 20.5 31.1182 20.5 32.5C20.5 33.8818 21.6195 35 23 35H25.5V37.5C25.5 38.8818 26.6195 40 28 40C29.3805 40 30.5 38.8818 30.5 37.5V35H33C34.3805 35 35.5 33.8818 35.5 32.5C35.5 31.1182 34.3805 30 33 30Z" fill="#2AA7FF"/>
</svg>
