<svg width="70" height="70" viewBox="0 0 70 70" fill="none" xmlns="http://www.w3.org/2000/svg">
<path d="M50 70H30C23.108 70 17.5 64.392 17.5 57.5V42.5H22.5V57.5C22.5 61.6357 25.8643 65 30 65H50C54.1357 65 57.5 61.6357 57.5 57.5V40H62.5V57.5C62.5 64.392 56.892 70 50 70Z" fill="#2AA7FF"/>
<path d="M20 35C9.08923 35 1.06798 27.1045 0.732483 26.7675L4.26773 23.2323C4.33248 23.2958 11.199 29.9998 20.0002 29.9998C28.8015 29.9998 35.668 23.2958 35.7362 23.2285L39.2677 26.7673C38.932 27.1043 30.9105 35 20 35Z" fill="#2AA7FF"/>
<path d="M20 45C8.97225 45 0 36.0277 0 25V11.4037C0 7.95521 2.3365 4.96321 5.68125 4.12721L11.8935 2.57446L13.107 7.42546L6.89475 8.97821C5.779 9.25646 5.00025 10.254 5.00025 11.4037V25C5.00025 33.2715 11.7288 40 20.0003 40C28.2718 40 35.0003 33.2715 35.0003 25V11.4037C35.0003 10.2537 34.2215 9.25646 33.1058 8.97821L26.8935 7.42546L28.107 2.57446L34.3193 4.12721C37.664 4.96346 40.0005 7.95521 40.0005 11.4037V25C40.0005 36.0277 31.0278 45 20 45Z" fill="#2AA7FF"/>
<path d="M12.5 10C11.1195 10 10 8.8805 10 7.5V2.5C10 1.1195 11.1195 0 12.5 0C13.8805 0 15 1.1195 15 2.5V7.5C15 8.8805 13.8805 10 12.5 10Z" fill="#2AA7FF"/>
<path d="M27.5 10C26.1195 10 25 8.8805 25 7.5V2.5C25 1.1195 26.1195 0 27.5 0C28.8805 0 30 1.1195 30 2.5V7.5C30 8.8805 28.8805 10 27.5 10Z" fill="#2AA7FF"/>
<path d="M60 42.5C54.486 42.5 50 38.014 50 32.5C50 26.986 54.486 22.5 60 22.5C65.514 22.5 70 26.986 70 32.5C70 38.014 65.514 42.5 60 42.5ZM60 27.5C57.2425 27.5 55 29.7425 55 32.5C55 35.2575 57.2425 37.5 60 37.5C62.7575 37.5 65 35.2575 65 32.5C65 29.7425 62.7575 27.5 60 27.5Z" fill="#2AA7FF"/>
</svg>
