<svg width="22" height="22" viewBox="0 0 22 22" fill="none" xmlns="http://www.w3.org/2000/svg">
<path fill-rule="evenodd" clip-rule="evenodd" d="M8.39959 3.2001C5.52771 3.2001 3.1996 5.52822 3.1996 8.4001C3.1996 11.272 5.52771 13.6001 8.39959 13.6001C11.2715 13.6001 13.5996 11.272 13.5996 8.4001C13.5996 5.52822 11.2715 3.2001 8.39959 3.2001ZM0.599609 8.4001C0.599609 4.09228 4.09178 0.600098 8.39959 0.600098C12.7074 0.600098 16.1996 4.09228 16.1996 8.4001C16.1996 10.0847 15.6655 11.6445 14.7575 12.9196L21.0188 19.1809C21.5265 19.6885 21.5265 20.5117 21.0188 21.0193C20.5111 21.527 19.688 21.527 19.1803 21.0193L12.9191 14.7581C11.644 15.6661 10.0842 16.2001 8.39959 16.2001C4.09178 16.2001 0.599609 12.7079 0.599609 8.4001Z" fill="white"/>
</svg>
