<svg width="26" height="26" viewBox="0 0 26 26" fill="none" xmlns="http://www.w3.org/2000/svg">
<path fill-rule="evenodd" clip-rule="evenodd" d="M2.81555 6.49861C6.72629 6.44556 10.2895 4.95347 12.9996 2.52783C15.7097 4.95347 19.2729 6.44556 23.1837 6.49861C23.3257 7.34462 23.3996 8.21371 23.3996 9.10008C23.3996 15.8924 19.0586 21.6708 12.9996 23.8124C6.94061 21.6708 2.59961 15.8924 2.59961 9.10008C2.59961 8.21372 2.67353 7.34462 2.81555 6.49861ZM17.6067 11.1071C17.9972 10.7166 17.9972 10.0835 17.6067 9.69293C17.2162 9.30241 16.583 9.30241 16.1925 9.69293L11.6996 14.1858L9.80671 12.2929C9.41619 11.9024 8.78302 11.9024 8.3925 12.2929C8.00197 12.6835 8.00197 13.3166 8.3925 13.7071L10.9925 16.3071C11.18 16.4947 11.4344 16.6 11.6996 16.6C11.9648 16.6 12.2192 16.4947 12.4067 16.3071L17.6067 11.1071Z" fill="#2AA8FF"/>
</svg>
