<svg width="36" height="36" viewBox="0 0 36 36" fill="none" xmlns="http://www.w3.org/2000/svg">
<rect x="0.700012" y="0.5" width="34.2" height="34.2" rx="17.1" fill="white" fill-opacity="0.99"/>
<rect x="0.700012" y="0.5" width="34.2" height="34.2" rx="17.1" stroke="white"/>
<path d="M24.1338 14.34C24.7588 13.8712 25.3213 13.3087 25.7588 12.6525C25.1963 12.9025 24.54 13.09 23.8838 13.1525C24.5713 12.7462 25.0713 12.1212 25.3213 11.34C24.6963 11.715 23.9775 11.9962 23.2588 12.1525C22.6338 11.4962 21.79 11.1212 20.8525 11.1212C19.04 11.1212 17.5713 12.59 17.5713 14.4025C17.5713 14.6525 17.6025 14.9025 17.665 15.1525C14.9463 14.9962 12.5088 13.6837 10.8838 11.715C10.6025 12.1837 10.4463 12.7462 10.4463 13.3712C10.4463 14.4962 11.0088 15.4962 11.915 16.09C11.3838 16.0587 10.8525 15.9337 10.415 15.6837V15.715C10.415 17.3087 11.54 18.6212 13.04 18.9337C12.79 18.9962 12.4775 19.0587 12.1963 19.0587C11.9775 19.0587 11.79 19.0275 11.5713 18.9962C11.9775 20.3087 13.1963 21.2462 14.6338 21.2775C13.5088 22.1525 12.1025 22.6837 10.5713 22.6837C10.29 22.6837 10.04 22.6525 9.79001 22.6212C11.2275 23.5587 12.9463 24.09 14.8213 24.09C20.8525 24.09 24.1338 19.1212 24.1338 14.7775C24.1338 14.6212 24.1338 14.4962 24.1338 14.34Z" fill="#2AA7FF"/>
</svg>
