<svg width="72" height="70" viewBox="0 0 72 70" fill="none" xmlns="http://www.w3.org/2000/svg">
<path d="M68.9062 70H3.09375C1.69599 70 0.5625 68.8805 0.5625 67.5V2.5C0.5625 1.1195 1.69599 0 3.09375 0H68.9062C70.304 0 71.4375 1.1195 71.4375 2.5V67.5C71.4375 68.8805 70.304 70 68.9062 70ZM5.625 65H66.375V5H5.625V65Z" fill="#2AA7FF"/>
<path d="M13.2188 15C14.6167 15 15.75 13.8807 15.75 12.5C15.75 11.1193 14.6167 10 13.2188 10C11.8208 10 10.6875 11.1193 10.6875 12.5C10.6875 13.8807 11.8208 15 13.2188 15Z" fill="#2AA7FF"/>
<path d="M25.7082 60.0973C23.4402 60.0973 21.171 59.244 19.4444 57.5388C18.3284 56.4365 17.5472 55.0875 17.1516 53.6155C15.6609 53.225 14.2953 52.4535 13.1793 51.351C9.7249 47.9403 9.7249 42.3885 13.1793 38.9781C15.8305 36.3573 19.7583 35.7323 23.0385 37.1933L38.221 22.1983C36.7414 18.9598 37.3743 15.0816 40.0255 12.4608C43.4849 9.04905 49.1036 9.0513 52.5557 12.4608C53.6704 13.5618 54.4516 14.9108 54.8485 16.3841C56.3391 16.7746 57.7047 17.5461 58.8208 18.6486C62.2752 22.0593 62.2752 27.611 58.8208 31.0215C56.166 33.64 52.2405 34.2651 48.9616 32.8063L33.7791 47.8013C35.2574 51.0398 34.6246 54.9193 31.9721 57.5388C30.2455 59.244 27.9762 60.0973 25.7082 60.0973ZM19.411 41.4278C18.4458 41.4278 17.4877 41.7928 16.7585 42.513C15.279 43.9755 15.279 46.3533 16.7585 47.8158C17.4642 48.5116 18.4048 48.8998 19.4072 48.9083C20.789 48.9205 21.905 50.0228 21.9174 51.3876C21.926 52.3776 22.3191 53.3065 23.0236 54.0036C24.5044 55.466 26.9118 55.466 28.3926 54.0036C29.7633 52.6486 29.8635 50.4988 28.625 49.0011C27.8031 48.0063 27.876 46.5583 28.7956 45.6515L46.7849 27.8843C47.7045 26.9748 49.1691 26.9053 50.1763 27.7158C51.6953 28.9451 53.8742 28.8401 55.2413 27.4863C56.7208 26.0238 56.7208 23.6461 55.2413 22.1835C54.5356 21.4878 53.595 21.0996 52.5926 21.0911C51.2121 21.0788 50.0948 19.9778 50.0824 18.6143C50.0738 17.6218 49.6807 16.6918 48.9762 15.9958C47.4955 14.5333 45.0867 14.5346 43.6059 15.9971C42.2353 17.3508 42.135 19.5018 43.3748 20.9983C44.1967 21.9921 44.1238 23.4398 43.2042 24.3478L25.2149 42.1151C24.294 43.0246 22.8269 43.0916 21.8235 42.2836C21.114 41.7098 20.2587 41.4278 19.411 41.4278Z" fill="#2AA7FF"/>
<path d="M58.7812 60H48.6562C47.2585 60 46.125 58.8805 46.125 57.5C46.125 56.1195 47.2585 55 48.6562 55H58.7812C60.179 55 61.3125 56.1195 61.3125 57.5C61.3125 58.8805 60.179 60 58.7812 60Z" fill="#2AA7FF"/>
</svg>
