<svg width="36" height="36" viewBox="0 0 36 36" fill="none" xmlns="http://www.w3.org/2000/svg">
<rect x="0.890015" y="0.5" width="34.2" height="34.2" rx="17.1" fill="white" fill-opacity="0.99"/>
<rect x="0.890015" y="0.5" width="34.2" height="34.2" rx="17.1" stroke="white"/>
<path d="M26.1363 13.4962C25.9488 12.7462 25.355 12.1525 24.6363 11.965C23.2925 11.59 17.98 11.59 17.98 11.59C17.98 11.59 12.6363 11.59 11.2925 11.965C10.5738 12.1525 9.98004 12.7462 9.79254 13.4962C9.41754 14.8087 9.41754 17.6212 9.41754 17.6212C9.41754 17.6212 9.41754 20.4025 9.79254 21.7462C9.98004 22.4962 10.5738 23.0587 11.2925 23.2462C12.6363 23.59 17.98 23.59 17.98 23.59C17.98 23.59 23.2925 23.59 24.6363 23.2462C25.355 23.0587 25.9488 22.4962 26.1363 21.7462C26.5113 20.4025 26.5113 17.6212 26.5113 17.6212C26.5113 17.6212 26.5113 14.8087 26.1363 13.4962ZM16.23 20.1525V15.09L20.6675 17.6212L16.23 20.1525Z" fill="#2AA7FF"/>
</svg>
